<svg xmlns="http://www.w3.org/2000/svg" xmlns:svg="http://www.w3.org/2000/svg" xmlns:xlink="http://www.w3.org/1999/xlink" id="svg3186" width="292" height="292" x="0" y="0" enable-background="new 0 0 86 86" version="1.1" viewBox="0 0 292 292" xml:space="preserve"><metadata id="metadata3244"/><defs id="defs3242"><radialGradient id="SVGID_1_-1" cx="43.221" cy="43.222" r="42.798" gradientTransform="matrix(0.9977,0,0,0.9977,-0.1211,-0.1227)" gradientUnits="userSpaceOnUse"><stop style="stop-color:#3fa17f" id="stop5559" offset="0"/><stop style="stop-color:#a1d2d4" id="stop5561" offset="1"/></radialGradient><radialGradient id="SVGID_1_-1-5" cx="43.221" cy="43.222" r="42.798" gradientTransform="matrix(0.9977,0,0,0.9977,-0.1211,-0.1227)" gradientUnits="userSpaceOnUse"><stop style="stop-color:#3fa17f" id="stop5559-3" offset="0"/><stop style="stop-color:#a1d2d4" id="stop5561-0" offset="1"/></radialGradient><linearGradient id="linearGradient5685-1" x1="85.59" x2="1.642" y1="86.107" y2="2.049" gradientUnits="userSpaceOnUse" xlink:href="#SVGID_1_-1-5-1"/><radialGradient id="SVGID_1_-1-5-1" cx="43.221" cy="43.222" r="42.798" gradientTransform="matrix(0.9977,0,0,0.9977,-0.1211,-0.1227)" gradientUnits="userSpaceOnUse"><stop style="stop-color:#3fa17f" id="stop5559-3-8" offset="0"/><stop style="stop-color:#a1d2d4" id="stop5561-0-5" offset="1"/></radialGradient><linearGradient id="linearGradient5703" x1="85.59" x2="1.642" y1="86.107" y2="2.049" gradientTransform="matrix(3.4101847,0,0,3.4101847,-0.61607628,-206.50834)" gradientUnits="userSpaceOnUse" xlink:href="#SVGID_1_-1-5-1"/></defs><g id="layer2" transform="translate(0,206)" style="display:inline"><g id="Layer_1-3" transform="matrix(1.0090523,0,0,1.0090523,-0.00558276,-0.80895894)"><radialGradient id="radialGradient5593" cx="43.221" cy="43.222" r="42.798" gradientTransform="matrix(0.9977,0,0,0.9977,-0.1211,-0.1227)" gradientUnits="userSpaceOnUse"><stop style="stop-color:#3fa17f" id="stop5595" offset="0"/><stop style="stop-color:#a1d2d4" id="stop5597" offset="1"/></radialGradient></g><path style="fill:url(#linearGradient5703);fill-opacity:1;display:inline" id="path5563" d="m 291.63676,80.891806 c 0,2.680405 -2.17229,4.852693 -4.8527,4.852693 H 5.2596719 c -2.6804052,0 -4.85269276,-2.172288 -4.85269276,-4.852693 V -200.63258 c 0,-2.68041 2.17228756,-4.8527 4.85269276,-4.8527 H 286.78066 c 2.6804,0 4.85269,2.17229 4.85269,4.8527 V 80.891806 z"/></g><g id="layer1" transform="translate(0,206)" style="display:inline"><path style="fill:#b5cde6;fill-opacity:1;stroke:none" id="path3312" d="m 38.75443,30.26329 a 8.2734175,8.2734175 0 1 1 -16.546835,0 8.2734175,8.2734175 0 1 1 16.546835,0 z" transform="matrix(3.3795915,0,0,3.3795915,-13.834286,-216.41941)"/><path style="fill:#fdd59a;fill-opacity:1;stroke:none" id="path3312-3" d="m 38.75443,30.26329 a 8.2734175,8.2734175 0 1 1 -16.546835,0 8.2734175,8.2734175 0 1 1 16.546835,0 z" transform="matrix(3.3795915,0,0,3.3795915,92.122327,-215.68359)"/><path style="fill:#8ae234;fill-opacity:1;stroke:none" id="path3312-1" d="m 38.75443,30.26329 a 8.2734175,8.2734175 0 1 1 -16.546835,0 8.2734175,8.2734175 0 1 1 16.546835,0 z" transform="matrix(3.3795915,0,0,3.3795915,-13.834283,-109.72698)"/><path style="fill:#f78f8f;fill-opacity:1;stroke:none" id="path3312-0" d="m 38.75443,30.26329 a 8.2734175,8.2734175 0 1 1 -16.546835,0 8.2734175,8.2734175 0 1 1 16.546835,0 z" transform="matrix(3.3795915,0,0,3.3795915,92.122331,-108.99117)"/></g><g id="Layer_2" display="none" transform="translate(0,206)" style="display:none"><rect id="rect3189" width="497" height="300" x="-21" y="-159" display="inline" style="fill:#32332f;display:inline"/></g><g id="Layer_1" transform="translate(0,206)"><radialGradient id="SVGID_1_" cx="43" cy="43" r="42.7" fx="43" fy="43" gradientTransform="matrix(0.99040218,-0.98857859,1.0012236,1.0030704,-42.639906,42.37685)" gradientUnits="userSpaceOnUse" spreadMethod="pad"><stop style="stop-color:#7b7b7d" id="stop3193" offset="0"/><stop style="stop-color:#dadada" id="stop3195" offset="1"/></radialGradient><g id="g3199"><radialGradient id="SVGID_2_" cx="38.5" cy="43" r="29.835" gradientUnits="userSpaceOnUse"><stop style="stop-color:#362936" id="stop3202" offset=".543"/><stop style="stop-color:#453545" id="stop3204" offset=".828"/></radialGradient></g><radialGradient id="SVGID_3_" cx="43.102" cy="43.077" r="31.979" gradientUnits="userSpaceOnUse"><stop style="stop-color:#77dbe0" id="stop3211" offset=".296"/><stop style="stop-color:#0eaeb0" id="stop3213" offset=".887"/><stop style="stop-color:#2dbbbe" id="stop3215" offset="1"/></radialGradient><linearGradient id="SVGID_4_" x1="43.5" x2="43.5" y1="30.152" y2="53" gradientUnits="userSpaceOnUse"><stop style="stop-color:#635f63" id="stop3220" offset="0"/><stop style="stop-color:#41ced4" id="stop3222" offset="1"/></linearGradient><linearGradient id="SVGID_5_" x1="43" x2="54.543" y1="39.766" y2="39.766" gradientUnits="userSpaceOnUse"><stop style="stop-color:#fff" id="stop3227" offset="0"/><stop style="stop-color:#fff;stop-opacity:.4" id="stop3229" offset="1"/></linearGradient><linearGradient id="SVGID_6_" x1="523" x2="534.544" y1="39.766" y2="39.766" gradientTransform="matrix(-1,0,0,1,566,0)" gradientUnits="userSpaceOnUse"><stop style="stop-color:#2a2b2b" id="stop3234" offset="0"/><stop style="stop-color:#4f5251;stop-opacity:.4" id="stop3236" offset="1"/></linearGradient></g></svg>