<svg xmlns="http://www.w3.org/2000/svg" xmlns:svg="http://www.w3.org/2000/svg" xmlns:xlink="http://www.w3.org/1999/xlink" id="svg3186" width="86" height="86" x="0" y="0" enable-background="new 0 0 86 86" version="1.1" viewBox="0 0 86 86" xml:space="preserve"><metadata id="metadata3244"/><defs id="defs3242"><linearGradient id="linearGradient4128" x1="85.59" x2="-.205" y1="86.107" y2=".201" gradientUnits="userSpaceOnUse" xlink:href="#SVGID_1_"/><radialGradient id="SVGID_1_-1" cx="43.221" cy="43.222" r="42.798" gradientTransform="matrix(0.9977,0,0,0.9977,-0.1211,-0.1227)" gradientUnits="userSpaceOnUse"><stop style="stop-color:#3fa17f" id="stop5559" offset="0"/><stop style="stop-color:#a1d2d4" id="stop5561" offset="1"/></radialGradient><radialGradient id="SVGID_1_-1-5" cx="43.221" cy="43.222" r="42.798" gradientTransform="matrix(0.9977,0,0,0.9977,-0.1211,-0.1227)" gradientUnits="userSpaceOnUse"><stop style="stop-color:#3fa17f" id="stop5559-3" offset="0"/><stop style="stop-color:#a1d2d4" id="stop5561-0" offset="1"/></radialGradient><linearGradient id="linearGradient5685" x1="85.59" x2="1.642" y1="86.107" y2="2.049" gradientUnits="userSpaceOnUse" xlink:href="#SVGID_1_-1-5"/><linearGradient id="linearGradient5685-1" x1="85.59" x2="1.642" y1="86.107" y2="2.049" gradientUnits="userSpaceOnUse" xlink:href="#SVGID_1_-1-5-1"/><radialGradient id="SVGID_1_-1-5-1" cx="43.221" cy="43.222" r="42.798" gradientTransform="matrix(0.9977,0,0,0.9977,-0.1211,-0.1227)" gradientUnits="userSpaceOnUse"><stop style="stop-color:#3fa17f" id="stop5559-3-8" offset="0"/><stop style="stop-color:#a1d2d4" id="stop5561-0-5" offset="1"/></radialGradient><linearGradient id="linearGradient5703" x1="85.59" x2="1.642" y1="86.107" y2="2.049" gradientTransform="translate(0.10697914,0.04449893)" gradientUnits="userSpaceOnUse" xlink:href="#SVGID_1_-1-5-1"/></defs><g id="layer2" style="display:inline"><g id="Layer_1-3" transform="translate(-0.00188162,-0.0324772)"><radialGradient id="radialGradient5593" cx="43.221" cy="43.222" r="42.798" gradientTransform="matrix(0.9977,0,0,0.9977,-0.1211,-0.1227)" gradientUnits="userSpaceOnUse"><stop style="stop-color:#3fa17f" id="stop5595" offset="0"/><stop style="stop-color:#a1d2d4" id="stop5597" offset="1"/></radialGradient></g><path style="fill:url(#linearGradient5703);fill-opacity:1;display:inline" id="path5563" d="m 85.806981,84.321499 c 0,0.786 -0.637,1.423 -1.423,1.423 H 1.8299791 c -0.786,0 -1.42299996,-0.637 -1.42299996,-1.423 V 1.7674989 c 0,-0.78599994 0.63699996,-1.42299997 1.42299996,-1.42299997 H 84.382981 c 0.786,0 1.423,0.63700003 1.423,1.42299997 V 84.321499 z"/></g><g id="layer1" style="display:inline"><path style="fill:#b5cde6;fill-opacity:1;stroke:none" id="path3312" d="m 38.75443,30.26329 a 8.2734175,8.2734175 0 1 1 -16.546835,0 8.2734175,8.2734175 0 1 1 16.546835,0 z" transform="translate(-3.806922,-3.6639107)"/><path style="fill:#fdd59a;fill-opacity:1;stroke:none" id="path3312-3" d="m 38.75443,30.26329 a 8.2734175,8.2734175 0 1 1 -16.546835,0 8.2734175,8.2734175 0 1 1 16.546835,0 z" transform="translate(27.544977,-3.4461884)"/><path style="fill:#8ae234;fill-opacity:1;stroke:none" id="path3312-1" d="m 38.75443,30.26329 a 8.2734175,8.2734175 0 1 1 -16.546835,0 8.2734175,8.2734175 0 1 1 16.546835,0 z" transform="translate(-3.8069212,27.905711)"/><path style="fill:#f78f8f;fill-opacity:1;stroke:none" id="path3312-0" d="m 38.75443,30.26329 a 8.2734175,8.2734175 0 1 1 -16.546835,0 8.2734175,8.2734175 0 1 1 16.546835,0 z" transform="translate(27.544978,28.123433)"/></g><g id="Layer_2" display="none"><rect id="rect3189" width="497" height="300" x="-21" y="-159" fill="#32332F" display="inline"/></g><g id="Layer_1"><radialGradient id="SVGID_1_" cx="43" cy="43" r="42.7" fx="43" fy="43" gradientTransform="matrix(0.99040218,-0.98857859,1.0012236,1.0030704,-42.639906,42.37685)" gradientUnits="userSpaceOnUse" spreadMethod="pad"><stop style="stop-color:#7b7b7d" id="stop3193" offset="0"/><stop style="stop-color:#dadada" id="stop3195" offset="1"/></radialGradient><g id="g3199"><radialGradient id="SVGID_2_" cx="38.5" cy="43" r="29.835" gradientUnits="userSpaceOnUse"><stop style="stop-color:#362936" id="stop3202" offset=".543"/><stop style="stop-color:#453545" id="stop3204" offset=".828"/></radialGradient></g><radialGradient id="SVGID_3_" cx="43.102" cy="43.077" r="31.979" gradientUnits="userSpaceOnUse"><stop style="stop-color:#77dbe0" id="stop3211" offset=".296"/><stop style="stop-color:#0eaeb0" id="stop3213" offset=".887"/><stop style="stop-color:#2dbbbe" id="stop3215" offset="1"/></radialGradient><linearGradient id="SVGID_4_" x1="43.5" x2="43.5" y1="30.151" y2="53" gradientUnits="userSpaceOnUse"><stop style="stop-color:#635f63" id="stop3220" offset="0"/><stop style="stop-color:#41ced4" id="stop3222" offset="1"/></linearGradient><linearGradient id="SVGID_5_" x1="43" x2="54.543" y1="39.766" y2="39.766" gradientUnits="userSpaceOnUse"><stop style="stop-color:#fff" id="stop3227" offset="0"/><stop style="stop-color:#fff;stop-opacity:.4" id="stop3229" offset="1"/></linearGradient><linearGradient id="SVGID_6_" x1="523" x2="534.544" y1="39.766" y2="39.766" gradientTransform="matrix(-1 0 0 1 566 0)" gradientUnits="userSpaceOnUse"><stop style="stop-color:#2a2b2b" id="stop3234" offset="0"/><stop style="stop-color:#4f5251;stop-opacity:.4" id="stop3236" offset="1"/></linearGradient></g></svg>